<svg width="18" height="18" viewBox="0 0 18 18" fill="none" xmlns="http://www.w3.org/2000/svg">
<path d="M9 1.82812C7.0979 1.82813 5.27371 2.58373 3.92872 3.92872C2.58373 5.27371 1.82813 7.0979 1.82812 9C1.82812 10.9021 2.58373 12.7263 3.92872 14.0713C5.27371 15.4163 7.0979 16.1719 9 16.1719C10.4857 16.1719 12.0452 15.7254 13.1709 14.9766C13.2642 14.9146 13.329 14.8181 13.3511 14.7083C13.3731 14.5985 13.3507 14.4845 13.2887 14.3912C13.2267 14.298 13.1302 14.2332 13.0204 14.2111C12.9107 14.189 12.7966 14.2114 12.7034 14.2734C11.726 14.9238 10.3064 15.3281 9 15.3281C7.74842 15.3281 6.52494 14.957 5.48428 14.2616C4.44363 13.5663 3.63254 12.578 3.15357 11.4217C2.67461 10.2654 2.5493 8.99298 2.79347 7.76544C3.03764 6.53791 3.64034 5.41034 4.52534 4.52534C5.41034 3.64034 6.53791 3.03764 7.76544 2.79347C8.99298 2.5493 10.2654 2.67461 11.4217 3.15357C12.578 3.63254 13.5663 4.44363 14.2616 5.48428C14.957 6.52494 15.3281 7.74842 15.3281 9C15.3281 11.0798 14.3592 11.3906 13.7812 11.3906C13.2033 11.3906 12.2344 11.0798 12.2344 9V6.1875C12.2344 6.07561 12.1899 5.96831 12.1108 5.88919C12.0317 5.81007 11.9244 5.76562 11.8125 5.76562C11.7006 5.76562 11.5933 5.81007 11.5142 5.88919C11.4351 5.96831 11.3906 6.07561 11.3906 6.1875V6.82031C10.9372 6.3217 10.3393 5.9772 9.68047 5.83495C9.02167 5.6927 8.3349 5.7598 7.7161 6.02688C7.0973 6.29396 6.57739 6.74768 6.22902 7.32464C5.88065 7.9016 5.72121 8.57298 5.773 9.24496C5.82478 9.91695 6.08519 10.556 6.51785 11.0727C6.9505 11.5895 7.53378 11.9582 8.1862 12.1273C8.83861 12.2965 9.52756 12.2576 10.1568 12.0161C10.786 11.7746 11.3241 11.3425 11.6958 10.7803C12.0769 11.7141 12.7969 12.2344 13.7812 12.2344C15.2782 12.2344 16.1719 11.025 16.1719 9C16.1696 7.09859 15.4133 5.27569 14.0688 3.93119C12.7243 2.58668 10.9014 1.83036 9 1.82812ZM9 11.3906C8.52718 11.3906 8.06498 11.2504 7.67184 10.9877C7.2787 10.725 6.97229 10.3517 6.79135 9.91485C6.61041 9.47802 6.56307 8.99735 6.65531 8.53361C6.74755 8.06988 6.97524 7.64391 7.30957 7.30957C7.64391 6.97524 8.06988 6.74755 8.53361 6.65531C8.99735 6.56307 9.47802 6.61041 9.91485 6.79135C10.3517 6.97229 10.725 7.2787 10.9877 7.67184C11.2504 8.06498 11.3906 8.52718 11.3906 9C11.3906 9.63403 11.1388 10.2421 10.6904 10.6904C10.2421 11.1388 9.63403 11.3906 9 11.3906Z" fill="#001524"/>
</svg>
