<svg width="14" height="15" viewBox="0 0 14 15" fill="none" xmlns="http://www.w3.org/2000/svg">
<path d="M12.2344 5.0625H9.84375V3.23438C9.84375 2.37657 9.50299 1.55389 8.89642 0.947326C8.28986 0.340763 7.46718 0 6.60938 0C5.75157 0 4.92889 0.340763 4.32233 0.947326C3.71576 1.55389 3.375 2.37657 3.375 3.23438V5.0625H0.984375C0.723303 5.0625 0.472923 5.16621 0.288317 5.35082C0.103711 5.53542 0 5.7858 0 6.04688V13.9219C0 14.1829 0.103711 14.4333 0.288317 14.6179C0.472923 14.8025 0.723303 14.9062 0.984375 14.9062H12.2344C12.4954 14.9062 12.7458 14.8025 12.9304 14.6179C13.115 14.4333 13.2188 14.1829 13.2188 13.9219V6.04688C13.2188 5.7858 13.115 5.53542 12.9304 5.35082C12.7458 5.16621 12.4954 5.0625 12.2344 5.0625ZM4.21875 3.23438C4.21875 2.60034 4.47062 1.99228 4.91895 1.54395C5.36728 1.09562 5.97534 0.84375 6.60938 0.84375C7.24341 0.84375 7.85147 1.09562 8.2998 1.54395C8.74813 1.99228 9 2.60034 9 3.23438V5.0625H4.21875V3.23438ZM12.375 13.9219C12.375 13.9592 12.3602 13.9949 12.3338 14.0213C12.3074 14.0477 12.2717 14.0625 12.2344 14.0625H0.984375C0.947079 14.0625 0.91131 14.0477 0.884938 14.0213C0.858566 13.9949 0.84375 13.9592 0.84375 13.9219V6.04688C0.84375 6.00958 0.858566 5.97381 0.884938 5.94744C0.91131 5.92107 0.947079 5.90625 0.984375 5.90625H12.2344C12.2717 5.90625 12.3074 5.92107 12.3338 5.94744C12.3602 5.97381 12.375 6.00958 12.375 6.04688V13.9219ZM7.3125 9.98438C7.3125 10.1234 7.27126 10.2594 7.194 10.375C7.11674 10.4906 7.00693 10.5808 6.87845 10.634C6.74997 10.6872 6.60859 10.7011 6.4722 10.674C6.33581 10.6469 6.21052 10.5799 6.11219 10.4816C6.01386 10.3832 5.94689 10.2579 5.91976 10.1215C5.89263 9.98515 5.90655 9.84378 5.95977 9.7153C6.01299 9.58682 6.10311 9.47701 6.21874 9.39975C6.33437 9.32249 6.47031 9.28125 6.60938 9.28125C6.79586 9.28125 6.9747 9.35533 7.10656 9.48719C7.23842 9.61905 7.3125 9.79789 7.3125 9.98438Z" fill="#001524"/>
</svg>
