<svg width="164" height="50" viewBox="0 0 164 50" fill="none" xmlns="http://www.w3.org/2000/svg">
<g clip-path="url(#clip0_43_300)">
<path d="M0.886236 28.9098C1.47878 28.1799 2.34956 27.6286 3.50372 27.2662C1.16962 26.1433 0 24.316 0 21.7844V8.37076C0 7.24786 0.231864 6.17599 0.700745 5.15517C1.16963 4.13434 1.8343 3.24112 2.69477 2.48571C4.56514 0.826868 6.97138 0 9.92378 0H18.7037C19.2962 0 19.6878 0.102082 19.8836 0.311352C20.0794 0.520621 20.1773 0.913638 20.1773 1.50061V47.6266C20.1773 48.2136 20.0794 48.6066 19.8836 48.8158C19.6878 49.0251 19.2911 49.1272 18.7037 49.1272H14.829C14.0664 49.1272 13.4017 48.8465 12.835 48.285C12.2682 47.7236 11.9848 47.0804 11.9848 46.3505V30.2675H10.1041C9.5631 30.2675 9.09937 30.4359 8.71809 30.7779C8.3368 31.1198 8.14615 31.5078 8.14615 31.9467V46.3454C8.14615 47.0753 7.86277 47.7236 7.29599 48.2799C6.72921 48.8414 6.09029 49.1221 5.37924 49.1221H1.47362C0.881083 49.1221 0.489491 49.02 0.293694 48.8107C0.0978981 48.6066 0 48.2084 0 47.6266V31.911C0 30.6452 0.293694 29.6448 0.886236 28.9149V28.9098ZM8.72839 7.27338C8.3471 7.61535 8.15646 8.00327 8.15646 8.44222V21.6721C8.15646 22.1366 8.3368 22.5602 8.69232 22.9532C9.04785 23.3412 9.47551 23.5402 9.965 23.5402H11.9951V6.76296H10.1144C9.57341 6.76296 9.10968 6.9314 8.72839 7.27338Z" fill="black"/>
<path d="M37.9282 49.1219H25.2375C24.645 49.1219 24.2482 49.0198 24.037 48.8105C23.8257 48.6013 23.7227 48.2185 23.7227 47.657V9.20764C23.7227 8.81973 23.7639 8.51859 23.8515 8.31442C23.9391 8.10515 24.0885 7.95713 24.31 7.85505C24.5058 7.78359 24.7944 7.73766 25.1757 7.72745C25.557 7.71724 26.0052 7.70703 26.5205 7.70703H37.923C38.4125 7.70703 38.8041 7.83463 39.0875 8.08984C39.3709 8.34505 39.51 8.71765 39.51 9.20254V10.4071C39.51 11.6985 39.2112 12.6989 38.6083 13.4032C38.0055 14.1076 37.1399 14.4649 36.0063 14.4649H31.91V25.3571H36.671C37.1605 25.3571 37.5521 25.4847 37.8354 25.7399C38.1188 25.9951 38.258 26.3677 38.258 26.8526V28.098C38.258 29.4149 37.9436 30.4153 37.315 31.0941C36.6864 31.7781 35.7847 32.1201 34.6048 32.1201H31.91V42.3538H36.0063C37.1605 42.3538 38.0364 42.7009 38.6238 43.3951C39.2163 44.0892 39.51 45.0947 39.51 46.4116V47.6162C39.51 48.1062 39.3657 48.4737 39.0875 48.7289C38.8041 48.9841 38.4177 49.1117 37.923 49.1117L37.9282 49.1219Z" fill="black"/>
<path d="M61.8358 9.17218V47.5858C61.8358 48.1473 61.7173 48.5403 61.4854 48.7751C61.2535 49.0099 60.8516 49.1222 60.2849 49.1222H56.5235C55.8125 49.1222 55.2096 48.8823 54.715 48.4076C54.2203 47.9329 53.8648 47.3153 53.6432 46.5599L48.3671 26.858L50.1395 46.2281C50.2117 47.0346 49.954 47.7134 49.3666 48.2749C48.7741 48.8363 48.0631 49.1171 47.2283 49.1171H43.5031C42.9363 49.1171 42.5395 48.9997 42.3025 48.77C42.0655 48.5403 41.9521 48.1422 41.9521 47.5807V9.17218C41.9521 8.58521 42.0397 8.19729 42.2098 8.00334C42.3798 7.80938 42.7766 7.7124 43.3897 7.7124H47.3365C47.9291 7.7124 48.4907 7.9625 49.0317 8.46271C49.5727 8.96291 49.9437 9.60093 50.1395 10.3819L55.4157 29.8286L53.6432 10.5656C53.5454 9.83572 53.8133 9.15177 54.4573 8.51885C54.9984 7.98292 55.6527 7.7124 56.4102 7.7124H60.3931C60.9856 7.7124 61.372 7.80938 61.5575 8.00334C61.743 8.19729 61.8358 8.59031 61.8358 9.17218Z" fill="black"/>
<path d="M77.9992 47.5856C77.9992 48.1726 77.8807 48.5707 77.6488 48.7902C77.417 49.0096 77.0151 49.1168 76.4483 49.1168H71.3215C70.7547 49.1168 70.3631 49.0096 70.1416 48.7902C69.92 48.5707 69.8118 48.1675 69.8118 47.5856V14.4751H67.6374C66.4781 14.4751 65.6022 14.1281 64.9993 13.4339C64.3965 12.7397 64.0977 11.7342 64.0977 10.4174V9.21279C64.0977 8.7279 64.2471 8.3553 64.5408 8.10009C64.8345 7.84489 65.2158 7.71729 65.6846 7.71729H81.8481C82.317 7.71729 82.6983 7.84489 82.992 8.10009C83.2857 8.3553 83.4351 8.7279 83.4351 9.21279V10.4174C83.4351 11.7087 83.126 12.7091 82.5128 13.4135C81.8997 14.1179 81.0237 14.4751 79.8953 14.4751H78.0147V47.5907L77.9992 47.5856Z" fill="black"/>
<path d="M87.1087 0H99.8406C100.33 0 100.717 0.127603 101 0.382809C101.283 0.638015 101.422 1.01062 101.422 1.49551V2.70008C101.422 3.9659 101.113 4.96121 100.5 5.68089C99.8869 6.40057 99.0265 6.75786 97.9187 6.75786H93.8224V21.4169H98.5834C99.0522 21.4169 99.4232 21.5445 99.7066 21.7997C99.99 22.0549 100.129 22.4275 100.129 22.9124V24.117C100.129 25.3828 99.8303 26.3781 99.2274 27.0978C98.6246 27.8175 97.7693 28.1748 96.6615 28.1748H93.8224V42.354H97.9187C99.0522 42.354 99.9179 42.7062 100.521 43.4157C101.124 44.12 101.422 45.1205 101.422 46.4118V47.6164C101.422 48.1064 101.278 48.4739 101 48.7291C100.717 48.9843 100.33 49.1119 99.8354 49.1119H87.1447C86.5522 49.1119 86.1554 49.0098 85.9442 48.8005C85.7329 48.5913 85.6299 48.2084 85.6299 47.647V1.50061C85.6299 0.913638 85.7278 0.520621 85.9236 0.311352C86.1245 0.102082 86.5213 0 87.1087 0Z" fill="black"/>
<path d="M118.322 9.28447L122.305 47.6981C122.331 47.8461 122.341 48.0248 122.341 48.2442C122.341 48.5862 122.249 48.8159 122.063 48.9384C121.878 49.0609 121.527 49.1222 121.012 49.1222H117.065C116.354 49.1222 115.689 48.8567 115.071 48.3157C114.432 47.7543 114.113 47.0856 114.113 46.3047L113.927 42.7216H111.382L111.232 46.3047C111.207 47.1316 110.887 47.8053 110.274 48.3157C109.661 48.8516 108.996 49.1222 108.28 49.1222H104.333C103.818 49.1222 103.462 49.0558 103.261 48.9231C103.066 48.7904 102.968 48.5403 102.968 48.1728C102.968 47.9788 102.978 47.8206 103.004 47.6981L107.023 9.28447C107.074 8.72302 107.224 8.31979 107.487 8.0799C107.744 7.8349 108.156 7.7124 108.723 7.7124H116.581C117.173 7.7124 117.596 7.8349 117.853 8.0799C118.111 8.3249 118.266 8.72812 118.317 9.28447H118.322ZM112.603 15.5676L111.645 36.9488H113.675L112.716 15.5319L112.608 15.5676H112.603Z" fill="black"/>
<path d="M134.522 49.9998C133.023 49.9998 131.647 49.7855 130.39 49.3618C129.138 48.9382 128.066 48.3308 127.18 47.555C126.294 46.7995 125.619 45.9165 125.15 44.9059C124.681 43.8953 124.449 42.8183 124.449 41.6699V35.9329C124.449 35.055 124.918 34.616 125.851 34.616H130.019C130.658 34.616 131.251 34.7844 131.792 35.1264C132.358 35.4939 132.642 35.9686 132.642 36.5505V41.3024C132.642 41.7414 132.827 42.1293 133.193 42.4712C133.564 42.8132 134.007 42.9817 134.522 42.9817C135.089 42.9817 135.558 42.8132 135.924 42.4712C136.295 42.1293 136.475 41.7414 136.475 41.3024C136.475 38.8167 135.847 36.6117 134.595 34.6875C134.177 34.029 133.713 33.4216 133.209 32.8602C132.704 32.2987 132.044 31.6046 131.235 30.7777L130.462 29.9712C129.55 29.0219 128.767 28.1184 128.102 27.2661C127.438 26.4137 126.85 25.4643 126.33 24.4129C125.078 21.8812 124.449 18.8085 124.449 15.205C124.449 14.0617 124.681 12.9745 125.15 11.9537C125.619 10.9329 126.294 10.0396 127.18 9.28423C128.066 8.5033 129.123 7.90101 130.354 7.47737C131.585 7.05373 132.925 6.83936 134.378 6.83936C135.831 6.83936 137.264 7.05373 138.531 7.47737C139.799 7.90612 140.896 8.5084 141.834 9.28423C142.72 10.0396 143.405 10.9278 143.9 11.9537C144.39 12.9745 144.637 14.0617 144.637 15.205V21.6005C144.637 22.5039 144.168 22.9531 143.235 22.9531H139.067C138.402 22.9531 137.805 22.7744 137.279 22.4222C136.748 22.0701 136.486 21.5903 136.486 20.9778V15.5674C136.486 15.1285 136.295 14.7354 135.914 14.3781C135.532 14.026 135.069 13.8473 134.528 13.8473C133.987 13.8473 133.538 14.026 133.183 14.3781C132.827 14.7303 132.647 15.1029 132.647 15.4908C132.647 18.0991 133.276 20.304 134.528 22.1058C134.996 22.8102 135.635 23.5656 136.444 24.372C138.413 26.2248 139.876 27.7203 140.834 28.8688C142.385 30.7471 143.478 33.146 144.116 36.0707C144.462 37.704 144.632 39.567 144.632 41.6648C144.632 42.8132 144.4 43.8902 143.931 44.9008C143.462 45.9114 142.797 46.7944 141.937 47.5498C141.025 48.3308 139.938 48.9331 138.67 49.3567C137.403 49.7803 136.022 49.9947 134.517 49.9947L134.522 49.9998Z" fill="black"/>
<path d="M162.413 49.1219H149.722C149.129 49.1219 148.733 49.0198 148.521 48.8105C148.31 48.6013 148.207 48.2185 148.207 47.657V9.20764C148.207 8.81973 148.248 8.51859 148.336 8.31442C148.423 8.10515 148.578 7.95713 148.8 7.85505C148.995 7.78359 149.284 7.73766 149.665 7.72745C150.046 7.71724 150.495 7.70703 151.01 7.70703H162.413C162.902 7.70703 163.294 7.83463 163.572 8.08984C163.855 8.34505 163.994 8.71765 163.994 9.20254V10.4071C163.994 11.6985 163.696 12.6989 163.093 13.4032C162.49 14.1076 161.624 14.4649 160.491 14.4649H156.394V25.3571H161.155C161.65 25.3571 162.036 25.4847 162.32 25.7399C162.603 25.9951 162.742 26.3677 162.742 26.8526V28.098C162.742 29.4149 162.428 30.4153 161.799 31.0941C161.171 31.7781 160.269 32.1201 159.089 32.1201H156.394V42.3538H160.491C161.645 42.3538 162.521 42.7009 163.108 43.3951C163.696 44.0892 163.994 45.0947 163.994 46.4116V47.6162C163.994 48.1062 163.85 48.4737 163.572 48.7289C163.294 48.9841 162.902 49.1117 162.413 49.1117V49.1219Z" fill="black"/>
</g>
<defs>
<clipPath id="clip0_43_300">
<rect width="164" height="50" fill="white"/>
</clipPath>
</defs>
</svg>
